<svg version="1" xmlns="http://www.w3.org/2000/svg" width="682.667" height="682.667" viewBox="0 0 512.000000 512.000000"><path d="M239 24.1c-44.6 4.5-89.7 23.2-124.8 51.7-57.1 46.3-89.6 117.6-86.9 190.7 1.4 35.2 8.8 64.6 24.2 96 11.9 24.3 25.5 43.3 44.6 62.4 92.1 92.1 240.7 92.1 332.8 0 83.2-83.2 92.3-213.6 21.5-308.2l-7.4-9.9V71h-38l-6.8-4.9c-44-31.7-104-47.6-159.2-42zm55 19.4c15.8 2.6 41.9 9.9 43.9 12.2.3.3-.3.3-1.4-.1-1.1-.4-8.1-1-15.5-1.3-91.3-3.9-167 68.5-167 159.7 0 68.8 44.2 130.1 109.5 151.9 18.2 6.1 27.9 7.5 50.5 7.5s32.3-1.4 50.5-7.5c54.3-18.1 95-64.2 106.4-120.6 1.2-5.5 2.1-11.8 2.1-14 .1-3.4.2-3.6 1.3-1.8.8 1.4 1.2 8.9 1.2 25.5-.1 20.1-.4 25.4-2.4 36.5-8.1 45.3-28.4 84.8-60.1 116.5-87.2 87.1-230.1 83.2-312.1-8.7-33.8-37.8-52.6-84.4-54.6-135.3C42 151.5 125.7 54.7 238.5 42c11.5-1.3 44.2-.4 55.5 1.5zm130.8 147.8l-.3 101.4-2.8 3.7c-1.6 2-4.7 4.9-7 6.4l-4 2.7-23.3.3-23.2.3-.6-2.8c-.3-1.5-.8-5.6-1.1-9.1l-.7-6.2h18.5c18.2 0 18.6-.1 21.4-2.4l2.8-2.4.3-30.1.3-30.1H274.4l-2.1 8.8c-5.8 24.4-18.7 47.6-38 68.2l-7 7.5-6-5.5-6.1-5.5 4.3-4.5c13.1-13.9 27.3-39.2 32-57 5.3-20.3 5.7-26.2 6.2-87.8l.5-57.2H425l-.2 101.3z"/><path d="M278 126v21h127v-42H278v21zM278 178.9c0 9.2-.3 19.6-.6 23l-.7 6.1H405v-46H278v16.9z"/></svg>